<?xml version="1.0" standalone="no"?>
<!DOCTYPE svg PUBLIC "-//W3C//DTD SVG 20010904//EN"
 "http://www.w3.org/TR/2001/REC-SVG-20010904/DTD/svg10.dtd">
<svg version="1.0" xmlns="http://www.w3.org/2000/svg"
 width="38.000000pt" height="26.000000pt" viewBox="0 0 38.000000 26.000000"
 preserveAspectRatio="xMidYMid meet">

<g transform="translate(0.000000,26.000000) scale(0.100000,-0.100000)"
fill="#000000" stroke="none">
<path d="M0 130 l0 -130 190 0 190 0 0 130 0 130 -190 0 -190 0 0 -130z m170
31 c0 -63 -17 -84 -42 -54 -11 14 -10 15 10 9 21 -7 22 -4 22 39 0 52 -16 57
-38 11 -31 -62 16 -124 85 -113 21 4 32 3 27 -2 -9 -10 -36 -14 -67 -12 -10 0
-29 12 -42 26 -35 34 -35 96 0 130 37 38 45 31 45 -34z m85 34 c29 -28 34 -89
11 -121 -14 -18 -15 -18 -22 9 -6 25 -10 28 -34 23 l-28 -5 15 39 c18 45 27
44 43 -5 12 -38 30 -47 30 -16 0 39 -20 72 -52 86 -28 12 -30 14 -10 15 13 0
34 -11 47 -25z"/>
<path d="M210 140 c0 -5 5 -10 11 -10 5 0 7 5 4 10 -3 6 -8 10 -11 10 -2 0 -4
-4 -4 -10z"/>
</g>
</svg>
